<?xml version="1.0" encoding="UTF-8" standalone="no"?>
<svg
   xmlns:dc="http://purl.org/dc/elements/1.1/"
   xmlns:cc="http://creativecommons.org/ns#"
   xmlns:rdf="http://www.w3.org/1999/02/22-rdf-syntax-ns#"
   xmlns:svg="http://www.w3.org/2000/svg"
   xmlns="http://www.w3.org/2000/svg"
   xmlns:sodipodi="http://sodipodi.sourceforge.net/DTD/sodipodi-0.dtd"
   xmlns:inkscape="http://www.inkscape.org/namespaces/inkscape"
   sodipodi:docname="mini-logo.svg"
   inkscape:version="1.0 (4035a4fb49, 2020-05-01)"
   id="svg8"
   version="1.1"
   viewBox="0 0 174.39922 54.046848"
   height="54.046848mm"
   width="174.39922mm">
  <defs
     id="defs2">
    <clipPath
       clipPathUnits="userSpaceOnUse"
       id="clipPath32">
      <path
         d="M 0,595.28 H 841.89 V 0 H 0 Z"
         id="path30" />
    </clipPath>
    <clipPath
       clipPathUnits="userSpaceOnUse"
       id="clipPath40">
      <path
         d="m 332.255,173.161 h 25.796 v -15.676 h -25.796 z"
         id="path38" />
    </clipPath>
    <clipPath
       clipPathUnits="userSpaceOnUse"
       id="clipPath56">
      <path
         d="M 233.851,261.204 H 326.96 V 245.217 H 233.851 Z"
         id="path54" />
    </clipPath>
    <clipPath
       clipPathUnits="userSpaceOnUse"
       id="clipPath72">
      <path
         d="m 328.073,282.587 h 38.164 v -22.709 h -38.164 z"
         id="path70" />
    </clipPath>
    <clipPath
       clipPathUnits="userSpaceOnUse"
       id="clipPath88">
      <path
         d="m 226.411,285.538 h 64.595 v -9.623 h -64.595 z"
         id="path86" />
    </clipPath>
    <clipPath
       clipPathUnits="userSpaceOnUse"
       id="clipPath104">
      <path
         d="m 290.635,298.772 h 35.161 v -18.483 h -35.161 z"
         id="path102" />
    </clipPath>
    <clipPath
       clipPathUnits="userSpaceOnUse"
       id="clipPath120">
      <path
         d="m 221.177,322.344 h 35.104 v -18.631 h -35.104 z"
         id="path118" />
    </clipPath>
    <clipPath
       clipPathUnits="userSpaceOnUse"
       id="clipPath136">
      <path
         d="M 257.984,308.437 Z"
         id="path134" />
    </clipPath>
    <clipPath
       clipPathUnits="userSpaceOnUse"
       id="clipPath148">
      <path
         d="M 264.234,311.45 Z"
         id="path146" />
    </clipPath>
    <clipPath
       clipPathUnits="userSpaceOnUse"
       id="clipPath160">
      <path
         d="m 257.415,323.671 h 19.55 v -18.924 h -19.55 z"
         id="path158" />
    </clipPath>
    <clipPath
       clipPathUnits="userSpaceOnUse"
       id="clipPath176">
      <path
         d="M 240.218,368.999 H 372.392 V 80.6229 H 240.218 Z"
         id="path174" />
    </clipPath>
    <clipPath
       clipPathUnits="userSpaceOnUse"
       id="clipPath192">
      <path
         d="m 193.678,451.76 h 197.71 V 214.541 h -197.71 z"
         id="path190" />
    </clipPath>
    <clipPath
       clipPathUnits="userSpaceOnUse"
       id="clipPath208">
      <path
         d="M 0,595.28 H 841.89 V 0 H 0 Z"
         id="path206" />
    </clipPath>
    <clipPath
       clipPathUnits="userSpaceOnUse"
       id="clipPath216">
      <path
         d="M 87.27,467.134 H 307.261 V 46.0979 H 87.27 Z"
         id="path214" />
    </clipPath>
    <clipPath
       clipPathUnits="userSpaceOnUse"
       id="clipPath272">
      <path
         d="M 0,595.28 H 841.89 V 0 H 0 Z"
         id="path270" />
    </clipPath>
  </defs>
  <sodipodi:namedview
     inkscape:window-maximized="0"
     inkscape:window-y="0"
     inkscape:window-x="234"
     inkscape:window-height="1040"
     inkscape:window-width="1465"
     fit-margin-bottom="0"
     fit-margin-right="0"
     fit-margin-left="0"
     fit-margin-top="0"
     showgrid="false"
     inkscape:document-rotation="0"
     inkscape:current-layer="g294"
     inkscape:document-units="mm"
     inkscape:cy="186.91179"
     inkscape:cx="472.24851"
     inkscape:zoom="2.8"
     inkscape:pageshadow="2"
     inkscape:pageopacity="0.0"
     borderopacity="1.0"
     bordercolor="#666666"
     pagecolor="#ffffff"
     id="base" />
  <metadata
     id="metadata5">
    <rdf:RDF>
      <cc:Work
         rdf:about="">
        <dc:format>image/svg+xml</dc:format>
        <dc:type
           rdf:resource="http://purl.org/dc/dcmitype/StillImage" />
        <dc:title></dc:title>
      </cc:Work>
    </rdf:RDF>
  </metadata>
  <g
     transform="translate(35.794844,-100.73253)"
     id="layer1"
     inkscape:groupmode="layer"
     inkscape:label="Warstwa 1">
    <g
       style="fill:#ffffff"
       id="g18"
       inkscape:label="liśćbezkoloru"
       transform="matrix(0.35277777,0,0,-0.35277777,-138.03584,262.57491)">
      <g
         style="fill:#ffffff"
         id="g20" />
      <g
         style="fill:#ffffff"
         id="g266">
        <g
           style="fill:#ffffff"
           id="g268"
           clip-path="url(#clipPath272)">
          <g
             style="fill:#ffffff"
             id="g274"
             transform="translate(382.2687,458.2101)">
            <path
               d="m 0,0 c 0,0 -32.108,-25.477 10.47,-20.416 42.577,5.06 92.571,20.939 92.571,20.939 0,0 0.639,0.364 1.444,-1.336 0.892,-1.881 0.214,-2.153 0.214,-2.153 0,0 -64.914,-34.202 -91.786,-56.014 -26.873,-21.812 -80.269,-69.101 -80.269,-69.101 0,0 16.097,7.416 42.403,8.267 22.968,0.742 49.943,0.085 69.45,-10.187 6.426,-3.384 8.011,-4.61 10.028,-6.644 -9.952,3.809 -18.798,5.807 -31.448,8.324 -25.651,5.104 -59.243,-0.929 -81.718,-6.871 -6.369,-1.684 -30.396,-8.725 -29.742,-17.101 -1.019,-2.282 -7.329,6.806 -1.876,16.752 5.769,10.522 47.904,48.511 69.321,65.81 14.686,11.863 51.956,38.152 67.878,43.033 11.953,3.664 -48.772,-9.51 -62.034,-5.759 C -42.751,-24.633 -6.544,-3.403 0,0"
               style="fill:#ffffff;fill-opacity:1;fill-rule:nonzero;stroke:none"
               id="path276" />
          </g>
          <g
             style="fill:#ffffff"
             id="g278"
             transform="translate(577.6475,429.4728)">
            <path
               d="M 0,0 C 0,0 -8.638,12.564 -17.799,3.403 -26.96,-5.758 -61.4,-48.473 -81.665,-92.92 c -10.383,-22.772 9.649,-20.161 17.668,-15.181 9.259,5.75 23.819,22.117 35.467,43.188 -20.54,-18.684 -30.101,-25.39 -35.991,-27.484 C -47.376,-48.554 -6.242,5.565 0,0"
               style="fill:#ffffff;fill-opacity:1;fill-rule:nonzero;stroke:none"
               id="path280" />
          </g>
          <g
             style="fill:#ffffff"
             id="g282"
             transform="translate(588.1174,396.58)">
            <path
               d="m 0,0 c 0,0 -2.686,6.384 -9.161,8.419 -4.581,1.44 -13.768,-13.722 -12.53,-16.516 0.25,-0.562 3.979,-3.856 5.812,-3.071 C -14.047,-10.383 -4.799,2.181 0,0"
               style="fill:#ffffff;fill-opacity:1;fill-rule:nonzero;stroke:none"
               id="path284" />
          </g>
          <g
             style="fill:#ffffff"
             id="g286"
             transform="translate(573.3723,372.3923)">
            <path
               d="m 0,0 c 0,0 -4.711,9.772 -9.772,9.772 -5.06,0 -26,-30.886 -32.98,-46.591 -6.98,-15.705 6.032,-15.656 9.881,-13.351 24.255,14.525 43.69,41.445 43.69,41.445 0,0 -21.965,-15.467 -26.349,-18.673 -4.613,-3.373 -13.245,-8.266 -13.245,-8.266 0,0 21.555,40.373 28.775,35.664"
               style="fill:#ffffff;fill-opacity:1;fill-rule:nonzero;stroke:none"
               id="path288" />
          </g>
          <g
             style="fill:#ffffff"
             id="g290"
             transform="translate(608.7517,365.0832)">
            <path
               d="m 0,0 c 0.592,-0.745 4.816,1.119 7.721,3.664 0.928,0.813 1.652,1.635 2.749,2.88 2.088,2.369 3.131,3.554 3.533,4.58 1.242,3.17 -0.947,7.98 -4.057,10.208 -4.614,3.306 -11.096,0.81 -17.275,-1.57 0,0 -12.578,-4.845 -20.024,-16.621 -1.085,-1.717 -2.104,-3.686 -1.963,-6.151 0.246,-4.298 3.848,-7.155 4.974,-7.983 0.608,-0.37 4.738,-2.956 4.58,-6.544 -0.04,-0.92 -0.369,-2.038 -2.356,-4.319 -2.801,-3.216 -6.095,-5.523 -10.6,-7.852 -0.775,-0.401 -8.597,-4.445 -9.161,-3.534 -0.365,0.588 2.468,2.957 4.057,4.275 6.585,5.466 12.604,8.607 16.053,10.383 12.765,6.572 19.228,9.893 23.209,11.604 5.102,2.193 9.077,3.902 14.832,5.759 C 23.33,1.056 28.621,2.121 28.53,2.617 28.452,3.043 24.482,2.713 21.681,2.268 18.322,1.736 15.612,0.875 13.742,0.174 10.891,-0.841 7.299,-2.176 3.185,-3.839 c -2.856,-1.154 -8.542,-3.509 -15.618,-6.893 -4.296,-2.054 -8.041,-4.045 -15.53,-8.026 -6.92,-3.679 -8.704,-4.748 -10.906,-6.37 -4.899,-3.608 -9.746,-7.177 -9.162,-11.124 0.519,-3.5 5.011,-5.28 5.235,-5.366 2.104,-0.802 4.373,-0.766 11.386,1.833 14.498,5.371 18.024,10.117 19.239,12.04 0.858,1.359 1.351,2.555 1.439,3.926 0.223,3.446 -2.216,6.27 -4.318,8.638 -3.83,4.314 -6.275,4.542 -6.544,7.067 -0.22,2.062 1.185,3.827 2.617,5.627 1.928,2.422 3.931,3.651 6.282,5.104 10.829,6.694 10.027,6.397 11.91,7.329 3.833,1.898 10.112,5.007 10.993,3.796 C 11.567,11.874 -1.135,1.429 0,0"
               style="fill:#ffffff;fill-opacity:1;fill-rule:nonzero;stroke:none"
               id="path292" />
          </g>
          <g
             style="fill:#ffffff"
             id="g294"
             transform="translate(608.7517,365.0832)" />
          <g
             style="fill:#ffffff"
             id="g298"
             transform="translate(659.6614,362.1167)">
            <path
               d="M 0,0 C 0.77,-0.71 13.98,7.654 12.477,15.443 11.61,19.934 6.233,22.262 5.846,22.423 -4.36,26.681 -17.345,16.475 -28.094,8.027 -28.995,7.319 -43.88,-4.601 -50.081,-20.329 c -1.071,-2.717 -2.184,-6.311 -0.785,-9.859 2.173,-5.512 8.988,-7.314 10.033,-7.591 8.455,-2.236 16.121,2.355 27.92,9.423 2.401,1.438 7.941,5.699 19.02,14.222 1.416,1.089 5.746,4.464 10.034,9.946 1.642,2.099 4.244,5.742 3.752,6.195 C 19.428,2.434 16.492,-0.249 12.128,-3.752 9.8,-5.619 6.213,-8.196 -0.96,-13.349 c -10.464,-7.518 -15.697,-11.276 -20.765,-13.524 -5.566,-2.467 -14.407,-6.387 -16.752,-3.664 -4.128,4.793 15.138,26.368 19.719,31.497 0.524,0.587 7.101,7.82 17.537,13 2.156,1.07 7.155,3.51 8.375,2.094 C 7.567,15.575 7.613,14.58 4.973,9.248 1.595,2.424 -0.335,0.309 0,0"
               style="fill:#ffffff;fill-opacity:1;fill-rule:nonzero;stroke:none"
               id="path300" />
          </g>
          <g
             style="fill:#ffffff"
             id="g306"
             transform="translate(702.3968,372.3923)">
            <path
               d="m 0,0 c 0,0 -4.711,9.772 -9.772,9.772 -5.06,0 -26,-30.886 -32.98,-46.591 -6.98,-15.705 6.032,-15.656 9.881,-13.351 24.255,14.525 43.69,41.445 43.69,41.445 0,0 -21.965,-15.467 -26.349,-18.673 -4.612,-3.373 -13.244,-8.266 -13.244,-8.266 0,0 21.554,40.373 28.774,35.664"
               style="fill:#ffffff;fill-opacity:1;fill-rule:nonzero;stroke:none"
               id="path308" />
          </g>
          <g
             style="fill:#ffffff"
             id="g310"
             transform="translate(718.0273,396.58)">
            <path
               d="m 0,0 c 0,0 -2.686,6.384 -9.161,8.419 -4.581,1.44 -13.768,-13.722 -12.53,-16.516 0.249,-0.562 3.979,-3.856 5.812,-3.071 C -14.047,-10.383 -4.799,2.181 0,0"
               style="fill:#ffffff;fill-opacity:1;fill-rule:nonzero;stroke:none"
               id="path312" />
          </g>
          <g
             style="fill:#ffffff"
             id="g314"
             transform="translate(763.8396,368.2057)">
            <path
               d="m 0,0 c 0.321,0.262 0.735,0.64 1.15,1.15 2.033,2.499 2.783,6.553 1.32,9.745 -1.857,4.054 -6.508,5.021 -9.416,5.631 -1.918,0.403 -4.05,0.535 -7.425,0.096 -6.161,-0.8 -10.954,-2.785 -14.706,-4.551 -4.811,-2.264 -11.26,-5.743 -18.424,-11.016 h -0.001 c -0.075,-0.056 -10.12,-7.616 -19.68,-21.706 -3.133,-4.618 -5.716,-9.301 -4.437,-13.698 1.335,-4.593 4.437,-7.429 4.437,-7.429 0.651,-0.52 2.078,-1.662 3.837,-2.051 4.002,-0.885 7.037,2.719 16.036,10.058 7.533,6.143 7.264,5.121 12.349,9.647 6.37,5.671 9.988,10.111 10.611,9.647 1.218,-0.905 -13.482,-17.177 -8.778,-25.275 1.935,-3.332 6.402,-3.98 6.945,-4.052 4.306,-0.563 7.81,1.939 14.278,7.429 11.412,9.685 18.964,17.564 19.97,18.619 4.007,4.205 12.749,13.378 12.251,13.891 -0.118,0.122 -0.847,-0.253 -9.647,-7.621 -6.628,-5.55 -9.943,-8.325 -11.532,-9.782 0,0 -8.758,-8.035 -18.011,-13.653 -0.562,-0.341 -1.676,-1.003 -2.156,-0.622 -1.168,0.926 2.232,7.383 4.977,11.516 0.459,0.691 1.186,1.683 2.639,3.669 1.783,2.434 3.041,4.065 5.557,7.329 3.043,3.946 1.391,1.715 2.012,2.538 0.102,0.136 2.101,2.788 3.497,3.737 0.238,0.161 0.586,0.398 1.102,0.527 0.582,0.145 0.808,0.011 0.958,0.143 0.426,0.378 -0.425,2.33 -1.777,4.149 -1.197,1.611 -3.024,3.996 -5.209,4.534 -2.952,0.727 -5.464,-2.738 -11.287,-8.393 -5.274,-5.121 -9.627,-8.507 -15.436,-13.024 -3.309,-2.573 -5.936,-4.384 -11.19,-8.007 -12.39,-8.541 -13.981,-8.777 -14.471,-8.296 -0.508,0.498 0.186,1.945 1.575,4.841 0.867,1.807 3.278,6.49 9.326,13.295 v 0 c 7.656,9.57 12.404,13.569 15.532,16.014 9.553,7.469 27.91,16.701 32.793,11.749 C 1.01,9.317 1.504,6.391 1.341,4.263 1.194,2.335 0.492,0.854 0,0"
               style="fill:#ffffff;fill-opacity:1;fill-rule:nonzero;stroke:none"
               id="path316" />
          </g>
          <g
             style="fill:#ffffff"
             id="g318"
             transform="translate(629.871,402.956)">
            <path
               d="m 0,0 c 0,0 -2.686,6.384 -9.161,8.42 -4.581,1.439 -13.768,-13.723 -12.53,-16.517 0.25,-0.562 3.979,-3.856 5.812,-3.071 C -14.047,-10.383 -4.799,2.181 0,0"
               style="fill:#ffffff;fill-opacity:1;fill-rule:nonzero;stroke:none"
               id="path320" />
          </g>
        </g>
      </g>
    </g>
  </g>
</svg>
